<?xml version="1.0" encoding="utf-8"?>
<!-- Generator: Adobe Illustrator 26.0.3, SVG Export Plug-In . SVG Version: 6.00 Build 0)  -->
<svg version="1.1" xmlns="http://www.w3.org/2000/svg" xmlns:xlink="http://www.w3.org/1999/xlink" x="0px" y="0px"
	 viewBox="0 0 500 500" style="enable-background:new 0 0 500 500;" xml:space="preserve">
<style type="text/css">
	.st0{fill:#F5F5F5;}
	.st1{fill:#E0E0E0;}
	.st2{fill:#EBEBEB;}
	.st3{fill:#FAFAFA;}
	.st4{display:none;}
	.st5{display:inline;}
	.st6{fill:#455A64;}
	.st7{fill:#FFBE9D;}
	.st8{fill:#263238;}
	.st9{fill:#EB996E;}
	.st10{fill:#E8505B;}
	.st11{fill:#FF0000;}
	.st12{opacity:0.3;}
	.st13{fill:#FFFFFF;}
</style>
<g id="Background_Complete">
	<g>
		<g>
			<g>
				<g>
					<g>
						<g>
							<path class="st0" d="M380.6,408.9c-15.6-10.9-19.1-31-18.5-49.2c0.1-3-0.2-6.2,1.2-8.9c1.4-2.7,4.8-4.5,7.5-3.2
								c2.2,1.1,3.2,3.7,4.5,5.8c1.7,2.9,4.2,5.3,7.1,6.8c1.9,1,4.3,1.6,6.2,0.6c2.6-1.4,2.9-5,2.9-8.1c0-5.6-0.1-11.2-0.1-16.8
								c0-3,0-6.1,0.9-8.9c0.9-2.9,3-5.5,5.9-6.3c2.9-0.8,6.4,0.8,7,3.8c0.3,1.2,0,2.5,0.1,3.7c0.1,1.2,0.7,2.6,1.9,3
								c1.2,0.4,2.4-0.5,3.3-1.4c3.1-3,5.2-7,7.2-10.8c2-3.9,3.9-7.9,6.7-11.2c2.8-3.3,6.7-5.9,11-6.2c4.3-0.2,8.9,2.4,10,6.6
								c1.1,4.2-1.4,8.5-4.1,12c-4,5.1-8.7,9.6-14,13.3c-0.9,0.7-2,1.4-2.3,2.5c-0.7,2,1.2,4,3.2,4.7c2.2,0.7,4.7,0.5,7,0.8
								c2.3,0.3,4.9,1.3,5.8,3.5c1.2,3.1-1.3,6.3-3.9,8.4c-5.1,4.2-10.9,7.6-17,9.8c-2.2,0.8-4.5,1.5-6.3,3.1
								c-1.8,1.6-2.9,4.3-1.8,6.4c1.1,2.1,3.8,2.8,6.2,2.4c2.3-0.4,4.4-1.7,6.6-2.5c4.1-1.6,9.5-1.3,12.1,2.3c1.7,2.3,1.9,5.6,1,8.4
								c-0.9,2.8-2.7,5.2-4.6,7.4c-6.6,7.8-15.1,14-24.7,17.4C399,411.5,390.1,412.4,380.6,408.9"/>
						</g>
					</g>
				</g>
			</g>
			<g>
				<g>
					<g>
						<g>
							<g>
								<path class="st1" d="M380.3,422.3c0.7-7.2,2.2-15.7,4.9-24.8c2.7-9.1,6.4-18.9,10.7-29c1.1-2.5,2.1-5,3.2-7.5
									c1.1-2.4,2.1-4.9,3.3-7.2c2.3-4.6,4.9-8.9,7.5-12.9c2.6-4,5.2-7.7,7.6-11.1c2.5-3.4,4.8-6.6,7.1-9.4
									c4.5-5.6,8.7-9.6,11.7-12.3c1.5-1.3,2.7-2.3,3.5-3c0.4-0.3,0.7-0.6,0.9-0.8c0.2-0.2,0.3-0.2,0.3-0.2c0,0-0.1,0.1-0.3,0.3
									c-0.2,0.2-0.5,0.5-0.9,0.8c-0.8,0.7-2,1.7-3.4,3.1c-2.9,2.7-7,6.8-11.5,12.4c-2.2,2.8-4.6,5.9-7,9.4
									c-2.4,3.4-5,7.1-7.6,11.1c-2.6,4-5.1,8.3-7.4,12.9c-1.2,2.3-2.2,4.7-3.3,7.2c-1,2.5-2.1,4.9-3.2,7.5
									c-4.3,10.1-8,19.8-10.7,29c-2.7,9.1-4.3,17.5-5,24.7"/>
							</g>
						</g>
					</g>
				</g>
			</g>
			<g>
				<g>
					<g>
						<g>
							<g>
								<path class="st1" d="M402.6,353.8c0,0-0.1-0.5-0.3-1.3c-0.2-0.8-0.3-2-0.6-3.5c-0.4-3-0.9-7.2-1.3-11.7
									c-0.5-4.6-1-8.7-1.4-11.7c-0.2-1.5-0.4-2.7-0.6-3.5c-0.1-0.8-0.2-1.3-0.2-1.3c0,0,0.2,0.4,0.4,1.3c0.2,0.8,0.5,2,0.8,3.5
									c0.6,3,1.1,7.1,1.6,11.7c0.5,4.5,0.9,8.6,1.2,11.8c0.2,1.4,0.3,2.6,0.4,3.6C402.6,353.3,402.6,353.8,402.6,353.8z"/>
							</g>
						</g>
					</g>
				</g>
			</g>
			<g>
				<g>
					<g>
						<g>
							<g>
								<path class="st1" d="M441.3,346.6c0,0-0.5,0.1-1.5,0.2c-1,0.1-2.4,0.2-4.2,0.4c-3.5,0.4-8.4,1.1-13.8,2.1
									c-5.3,1-10.1,2.1-13.6,3.1c-1.7,0.4-3.1,0.8-4.1,1.1c-1,0.3-1.5,0.4-1.5,0.4c0,0,0.5-0.2,1.4-0.6c0.9-0.3,2.3-0.8,4-1.3
									c3.4-1,8.2-2.2,13.6-3.2c5.4-1,10.3-1.7,13.8-1.9c1.8-0.2,3.2-0.2,4.2-0.2C440.7,346.5,441.3,346.6,441.3,346.6z"/>
							</g>
						</g>
					</g>
				</g>
			</g>
			<g>
				<g>
					<g>
						<g>
							<g>
								<path class="st1" d="M385.7,396.8c0,0-0.1-0.2-0.3-0.5c-0.2-0.4-0.4-0.8-0.7-1.4c-0.6-1.2-1.3-3-2.3-5.2
									c-1.9-4.4-4.3-10.6-6.8-17.5c-2.5-6.9-4.9-13.1-6.6-17.6c-0.9-2.2-1.6-4-2.1-5.3c-0.2-0.6-0.4-1.1-0.6-1.4
									c-0.1-0.3-0.2-0.5-0.2-0.5c0,0,0.1,0.2,0.3,0.5c0.2,0.4,0.4,0.8,0.7,1.4c0.6,1.2,1.3,3,2.3,5.2c1.9,4.4,4.3,10.6,6.8,17.5
									c2.5,6.9,4.9,13.1,6.6,17.6c0.9,2.2,1.6,4,2.1,5.3c0.2,0.6,0.4,1.1,0.6,1.4C385.7,396.6,385.7,396.8,385.7,396.8z"/>
							</g>
						</g>
					</g>
				</g>
			</g>
			<g>
				<g>
					<g>
						<g>
							<g>
								<path class="st1" d="M437.1,380.3c0,0-0.2,0.1-0.5,0.2c-0.4,0.1-0.9,0.3-1.5,0.5c-1.4,0.4-3.2,1.1-5.5,1.8
									c-4.6,1.5-11,3.7-18.1,6.1c-7.1,2.4-13.5,4.5-18.2,5.9c-2.3,0.7-4.2,1.3-5.6,1.6c-0.6,0.2-1.1,0.3-1.5,0.4
									c-0.3,0.1-0.5,0.1-0.5,0.1c0,0,0.2-0.1,0.5-0.2c0.4-0.1,0.9-0.3,1.5-0.5c1.4-0.4,3.2-1.1,5.5-1.8c4.6-1.5,11-3.7,18.1-6.1
									c7.1-2.4,13.5-4.5,18.2-5.9c2.3-0.7,4.2-1.3,5.6-1.6c0.6-0.2,1.1-0.3,1.5-0.4C436.9,380.3,437.1,380.2,437.1,380.3z"/>
							</g>
						</g>
					</g>
				</g>
			</g>
		</g>
		<g>
			<g>
				<path class="st1" d="M462.4,332.5c0,0-0.2-0.2-0.4-0.6c-0.3-0.4-0.6-1-1-1.6c-0.8-1.4-2-3.3-3.4-5.7l0.3,0.1
					c-2.3,1.4-5,2.9-7.9,4.6c0,0.1,0.2-0.7,0.1-0.4l0,0l0,0l0,0l0,0l0,0l0,0.1l0.1,0.1l0.2,0.3l0.3,0.5c0.2,0.4,0.4,0.7,0.6,1.1
					c0.4,0.7,0.8,1.4,1.2,2.1c0.8,1.3,1.5,2.6,2.1,3.8l-0.3-0.1c2.4-1.3,4.3-2.4,5.8-3.2c0.7-0.4,1.2-0.7,1.7-0.9
					C462.2,332.6,462.4,332.5,462.4,332.5c0,0-0.2,0.1-0.5,0.4c-0.4,0.3-0.9,0.6-1.6,1c-1.4,0.8-3.4,2-5.8,3.5l-0.2,0.1l-0.1-0.2
					c-0.7-1.2-1.4-2.4-2.2-3.7c-0.4-0.7-0.8-1.4-1.2-2.1c-0.2-0.4-0.4-0.7-0.6-1.1l-0.3-0.5l-0.2-0.3l-0.1-0.1l0-0.1l0,0l0,0l0,0
					l0,0l0,0c-0.1,0.3,0.1-0.4,0.1-0.4c2.9-1.7,5.6-3.2,8-4.6l0.2-0.1l0.1,0.2c1.4,2.4,2.5,4.5,3.3,5.9c0.3,0.6,0.6,1.2,0.9,1.6
					C462.3,332.3,462.4,332.5,462.4,332.5z"/>
			</g>
		</g>
		<g>
			<g>
				<path class="st1" d="M229,156.2c0,0-0.2-0.2-0.4-0.6c-0.3-0.4-0.6-1-1-1.6c-0.8-1.4-2-3.3-3.4-5.7l0.3,0.1
					c-2.3,1.4-5,2.9-7.9,4.6c0,0.1,0.2-0.7,0.1-0.4l0,0l0,0l0,0l0,0l0,0l0,0.1l0.1,0.1l0.2,0.3l0.3,0.5c0.2,0.4,0.4,0.7,0.6,1.1
					c0.4,0.7,0.8,1.4,1.2,2.1c0.8,1.3,1.5,2.6,2.1,3.8l-0.3-0.1c2.4-1.3,4.3-2.4,5.8-3.2c0.7-0.4,1.2-0.7,1.7-0.9
					C228.8,156.3,229,156.2,229,156.2c0,0-0.2,0.1-0.5,0.4c-0.4,0.3-0.9,0.6-1.6,1c-1.4,0.8-3.4,2-5.8,3.5l-0.2,0.1l-0.1-0.2
					c-0.7-1.2-1.4-2.4-2.2-3.7c-0.4-0.7-0.8-1.4-1.2-2.1c-0.2-0.4-0.4-0.7-0.6-1.1l-0.3-0.5l-0.2-0.3l-0.1-0.1l0-0.1l0,0l0,0l0,0
					l0,0l0,0c-0.1,0.3,0.1-0.4,0.1-0.4c2.9-1.7,5.6-3.2,8-4.6l0.2-0.1l0.1,0.2c1.4,2.4,2.5,4.5,3.3,5.9c0.3,0.6,0.6,1.2,0.9,1.6
					C229,156,229,156.2,229,156.2z"/>
			</g>
		</g>
		<g>
			<g>
				<g>
					
						<rect x="151.3" y="64.5" transform="matrix(1 -5.355922e-03 5.355922e-03 1 -0.4722 0.8376)" class="st1" width="9.7" height="48.1"/>
				</g>
			</g>
			<g>
				<g>
					<g>
						
							<rect x="67.5" y="64.7" transform="matrix(1 -5.354263e-03 5.354263e-03 1 -0.4164 0.4294)" class="st2" width="25" height="26.6"/>
					</g>
				</g>
				<g>
					<g>
						
							<rect x="92.4" y="64.6" transform="matrix(1 -5.354286e-03 5.354286e-03 1 -0.4153 0.5629)" class="st0" width="25" height="26.6"/>
					</g>
				</g>
				<g>
					<g>
						<g>
							<path class="st1" d="M67.4,72.1c16.6,0.1,33.3,0,50-0.2c0.3,0,0.3-0.5,0-0.5c-16.6-0.1-33.3,0-50,0.3
								C67.1,71.6,67.1,72.1,67.4,72.1L67.4,72.1z"/>
						</g>
					</g>
				</g>
			</g>
			<g>
				<g>
					<g>
						
							<rect x="51.8" y="90.9" transform="matrix(1 -5.357835e-03 5.357835e-03 1 -0.5438 0.4011)" class="st2" width="45.5" height="21.7"/>
					</g>
				</g>
				<g>
					<g>
						
							<rect x="97.1" y="90.6" transform="matrix(1 -5.355626e-03 5.355626e-03 1 -0.5416 0.6435)" class="st0" width="45.5" height="21.7"/>
					</g>
				</g>
				<g>
					<g>
						<g>
							<path class="st1" d="M51.8,97c30.2,0.3,60.6,0,90.8-0.4c0.3,0,0.3-0.5,0-0.5c-30.2-0.2-60.6-0.1-90.8,0.5
								C51.5,96.6,51.5,97,51.8,97L51.8,97z"/>
						</g>
					</g>
				</g>
			</g>
			<g>
				<g>
					<rect x="34.8" y="112.6" class="st1" width="176.3" height="7.8"/>
				</g>
				<g>
					<rect x="63.7" y="116.4" class="st1" width="7.2" height="26.5"/>
				</g>
				<g>
					<rect x="170.5" y="116.4" class="st1" width="7.2" height="26.5"/>
				</g>
			</g>
			<g>
				<g>
					
						<rect x="160.8" y="46.6" transform="matrix(1 -5.355922e-03 5.355922e-03 1 -0.4244 0.8883)" class="st2" width="9.7" height="66.2"/>
				</g>
			</g>
			<g>
				<g>
					<g>
						
							<rect x="170.5" y="58.9" transform="matrix(1 -5.363388e-03 5.363388e-03 1 -0.4573 0.9561)" class="st0" width="15" height="53.6"/>
					</g>
				</g>
				<g>
					<g>
						<path class="st1" d="M185.3,69.2c0,0.1-3.4,0.3-7.5,0.3c-4.2,0-7.5-0.1-7.5-0.3c0-0.1,3.4-0.3,7.5-0.3
							C181.9,69,185.3,69.1,185.3,69.2z"/>
					</g>
				</g>
				<g>
					<g>
						<path class="st1" d="M185.3,67c0,0.1-3.4,0.3-7.5,0.3c-4.2,0-7.5-0.1-7.5-0.3c0-0.1,3.4-0.3,7.5-0.3
							C181.9,66.7,185.3,66.8,185.3,67z"/>
					</g>
				</g>
				<g>
					<g>
						<path class="st1" d="M185.3,104.4c0,0.1-3.4,0.3-7.5,0.3c-4.2,0-7.5-0.1-7.5-0.3s3.4-0.3,7.5-0.3
							C181.9,104.2,185.3,104.3,185.3,104.4z"/>
					</g>
				</g>
				<g>
					<g>
						<path class="st1" d="M185.3,102.2c0,0.1-3.4,0.3-7.5,0.3c-4.2,0-7.5-0.1-7.5-0.3c0-0.1,3.4-0.3,7.5-0.3
							C181.9,101.9,185.3,102,185.3,102.2z"/>
					</g>
				</g>
				<g>
					<g>
						<path class="st1" d="M178,97.3c-0.1,0-0.3-5.4-0.3-12.1c0-6.7,0.1-12.1,0.3-12.1s0.3,5.4,0.3,12.1
							C178.3,91.9,178.2,97.3,178,97.3z"/>
					</g>
				</g>
			</g>
			<g>
				<g>
					<rect x="185.5" y="72" class="st2" width="16.4" height="40.5"/>
				</g>
				<g>
					<path class="st3" d="M194.1,102c-2.2,0-3.7-1.5-3.7-3.6c0-1.1,0.4-2.1,1.3-2.7l0.4,0.5c-0.7,0.5-1.1,1.3-1.1,2.2
						c0,1.7,1.2,2.9,3,2.9s3-1.2,3-2.9c0-0.9-0.3-1.7-1.1-2.2l0.4-0.5c0.9,0.6,1.3,1.6,1.3,2.7C197.8,100.5,196.2,102,194.1,102z"/>
					<path class="st3" d="M196.8,94.7l-0.6-0.3c0.5-0.6,0.9-1.5,0.9-2.6c0-1.5-0.5-2.1-1.4-2.1c-2.1,0-0.6,4.8-3.4,4.8
						c-1.1,0-2-0.9-2-2.7c0-0.9,0.3-1.9,0.7-2.5l0.6,0.3c-0.4,0.6-0.6,1.4-0.6,2.2c0,1.4,0.6,2,1.4,2c2.2,0,0.6-4.8,3.4-4.8
						c1.2,0,2,1,2,2.8C197.8,93,197.4,94.1,196.8,94.7z"/>
					<path class="st3" d="M196.8,88.1l-0.6-0.3c0.5-0.6,0.9-1.5,0.9-2.6c0-1.5-0.5-2.1-1.4-2.1c-2.1,0-0.6,4.8-3.4,4.8
						c-1.1,0-2-0.9-2-2.7c0-0.9,0.3-1.9,0.7-2.5l0.6,0.3c-0.4,0.6-0.6,1.4-0.6,2.2c0,1.4,0.6,2,1.4,2c2.2,0,0.6-4.8,3.4-4.8
						c1.2,0,2,1,2,2.8C197.8,86.4,197.4,87.5,196.8,88.1z"/>
				</g>
			</g>
			<g>
				<circle class="st1" cx="165.3" cy="57.9" r="2.8"/>
			</g>
			<g>
				<rect x="164.5" y="65.5" class="st1" width="1.7" height="39.4"/>
			</g>
		</g>
		<g>
			<g>
				<g>
					<path class="st1" d="M383.5,297.2c-0.1-0.1,3.1-3.5,7.3-7.6c4.1-4.1,7.5-7.4,7.6-7.3c0.1,0.1-3.1,3.5-7.3,7.6
						C387,294.1,383.6,297.3,383.5,297.2z"/>
				</g>
			</g>
			<g>
				<g>
					<path class="st1" d="M398.4,297.2c-0.1,0.1-3.5-3.1-7.6-7.3c-4.1-4.1-7.4-7.5-7.3-7.6c0.1-0.1,3.5,3.1,7.6,7.3
						C395.2,293.7,398.5,297.1,398.4,297.2z"/>
				</g>
			</g>
		</g>
		<g>
			<g>
				<g>
					<path class="st1" d="M247.3,216.5c-0.1-0.1,3.1-3.5,7.3-7.6c4.1-4.1,7.5-7.4,7.6-7.3c0.1,0.1-3.1,3.5-7.3,7.6
						C250.8,213.3,247.4,216.6,247.3,216.5z"/>
				</g>
			</g>
			<g>
				<g>
					<path class="st1" d="M262.2,216.5c-0.1,0.1-3.5-3.1-7.6-7.3c-4.1-4.1-7.4-7.5-7.3-7.6c0.1-0.1,3.5,3.1,7.6,7.3
						C259,212.9,262.3,216.4,262.2,216.5z"/>
				</g>
			</g>
		</g>
		<g>
			<g>
				<g>
					<path class="st1" d="M226.9,86.1c-0.1,0-0.6-4-1-9c-0.4-5-0.7-9-0.5-9c0.1,0,0.6,4,1,9C226.8,82.1,227,86.1,226.9,86.1z"/>
				</g>
			</g>
			<g>
				<g>
					<path class="st1" d="M235.1,76.3c0,0.1-4,0.6-9,1c-5,0.4-9,0.7-9,0.5c0-0.1,4-0.6,9-1C231,76.4,235.1,76.2,235.1,76.3z"/>
				</g>
			</g>
		</g>
		<g>
			<g>
				<path class="st1" d="M143.4,185c0,0-0.1-0.1-0.2-0.3c-0.1-0.2-0.3-0.5-0.5-0.8c-0.4-0.7-1-1.7-1.8-3c-1.5-2.6-3.7-6.3-6.3-10.6
					l0.3,0.1c-4.3,2.5-9.4,5.4-14.8,8.6c0,0.1,0.2-0.7,0.1-0.4l0,0l0,0l0,0l0,0l0,0.1l0.1,0.1l0.1,0.3l0.3,0.5l0.6,1
					c0.4,0.7,0.8,1.3,1.1,2c0.8,1.3,1.5,2.6,2.2,3.8c1.4,2.5,2.8,4.8,4,7l-0.3-0.1c4.4-2.5,8.1-4.6,10.7-6.1
					c1.3-0.7,2.3-1.3,3.1-1.7c0.3-0.2,0.6-0.3,0.8-0.4C143.3,185.1,143.4,185,143.4,185c0,0-0.3,0.2-1,0.6c-0.7,0.4-1.7,1-3,1.8
					c-2.6,1.6-6.3,3.7-10.8,6.3l-0.2,0.1l-0.1-0.2c-1.3-2.2-2.6-4.5-4.1-7c-0.7-1.2-1.5-2.5-2.2-3.8c-0.4-0.7-0.8-1.3-1.1-2l-0.6-1
					l-0.3-0.5l-0.1-0.3l-0.1-0.1l0-0.1l0,0l0,0l0,0l0,0c-0.1,0.3,0.1-0.4,0.1-0.4c5.4-3.1,10.5-6,14.8-8.5l0.2-0.1l0.1,0.2
					c2.5,4.5,4.6,8.2,6.1,10.9c0.7,1.3,1.3,2.3,1.7,3C143.2,184.7,143.4,185,143.4,185z"/>
			</g>
		</g>
		<g>
			<g>
				<path class="st1" d="M470.9,281.3c0,0-0.1-0.3-0.5-0.9c-0.3-0.5-0.9-1.2-2-1.7c-1-0.4-2.4-0.4-3.6,0.4c-1.2,0.8-1.9,2.5-1.5,4.1
					c0.4,1.6,1.9,2.7,3.3,2.8c1.4,0.2,2.7-0.5,3.4-1.4c0.7-0.9,0.9-1.8,0.9-2.4C470.9,281.7,470.9,281.3,470.9,281.3
					c0,0,0.2,0.3,0.2,1c0,0.6-0.1,1.7-0.8,2.6c-0.7,1-2.1,1.8-3.7,1.6c-1.6-0.1-3.3-1.3-3.8-3.2c-0.5-1.8,0.4-3.7,1.7-4.6
					c1.3-0.9,3-0.9,4-0.4c1.1,0.5,1.7,1.3,2,1.9C470.9,281,470.9,281.3,470.9,281.3z"/>
			</g>
		</g>
		<g>
			<g>
				<path class="st1" d="M284,43.3c0,0-0.1-0.3-0.5-0.9c-0.3-0.5-0.9-1.2-2-1.7c-1-0.4-2.4-0.4-3.6,0.4c-1.2,0.8-1.9,2.5-1.5,4.1
					c0.4,1.6,1.9,2.7,3.3,2.8c1.4,0.2,2.7-0.5,3.4-1.4c0.7-0.9,0.9-1.8,0.9-2.4C284,43.7,283.9,43.3,284,43.3c0,0,0.2,0.3,0.2,1
					c0,0.6-0.1,1.7-0.8,2.6c-0.7,1-2.1,1.8-3.7,1.6c-1.6-0.1-3.3-1.3-3.8-3.2c-0.5-1.8,0.4-3.7,1.7-4.6c1.3-0.9,3-0.9,4-0.4
					c1.1,0.5,1.7,1.3,2,1.9C284,42.9,284,43.3,284,43.3z"/>
			</g>
		</g>
		<g>
			<g>
				<path class="st1" d="M98,157.8c0,0-0.1-0.3-0.5-0.9c-0.3-0.5-0.9-1.2-2-1.7c-1-0.4-2.4-0.4-3.6,0.4c-1.2,0.8-1.9,2.5-1.5,4.1
					c0.4,1.6,1.9,2.7,3.3,2.8c1.4,0.2,2.7-0.5,3.4-1.4c0.7-0.9,0.9-1.8,0.9-2.4C98.1,158.1,98,157.8,98,157.8c0,0,0.2,0.3,0.2,1
					c0,0.6-0.1,1.7-0.8,2.6c-0.7,1-2.1,1.8-3.7,1.6c-1.6-0.1-3.3-1.3-3.8-3.2c-0.5-1.8,0.4-3.7,1.7-4.6c1.3-0.9,3-0.9,4-0.4
					c1.1,0.5,1.7,1.3,2,1.9C98,157.4,98,157.8,98,157.8z"/>
			</g>
		</g>
		<g>
			<g>
				<path class="st1" d="M453.7,141.8c-0.1,0-0.2-0.7-0.9-1.9c-0.7-1.2-2-2.7-4.2-3.7c-1.1-0.4-2.4-0.7-3.8-0.6
					c-1.4,0.1-2.9,0.6-4.1,1.5c-0.6,0.4-1.2,1-1.7,1.6c-0.5,0.6-0.9,1.4-1.2,2.2c-0.6,1.6-0.8,3.4-0.3,5.2c0.5,1.7,1.5,3.3,2.8,4.3
					c0.7,0.5,1.4,1,2.1,1.3c0.8,0.3,1.5,0.5,2.3,0.6c1.6,0.2,3.1-0.2,4.3-0.7c1.3-0.6,2.3-1.5,3-2.4c1.5-1.9,1.9-3.9,1.9-5.2
					C453.9,142.5,453.7,141.8,453.7,141.8c0,0,0.1,0.2,0.2,0.5c0.1,0.3,0.2,0.9,0.2,1.6c0.1,1.4-0.3,3.5-1.8,5.5
					c-0.8,1-1.8,1.9-3.1,2.5c-1.3,0.6-2.9,1-4.6,0.8c-0.8-0.1-1.7-0.3-2.5-0.6c-0.8-0.3-1.6-0.8-2.3-1.3c-1.4-1.1-2.5-2.8-3-4.6
					c-0.5-1.9-0.3-3.8,0.4-5.5c0.3-0.8,0.8-1.6,1.3-2.3c0.5-0.7,1.2-1.3,1.9-1.7c1.4-1,2.9-1.4,4.4-1.5c1.5-0.1,2.8,0.2,4,0.7
					c2.3,1,3.6,2.7,4.2,3.9c0.3,0.6,0.5,1.1,0.6,1.5C453.7,141.6,453.7,141.8,453.7,141.8z"/>
			</g>
		</g>
		<g>
			<g>
				<path class="st1" d="M426.8,268.4c0,0-0.2-0.3-0.5-0.9c-0.4-0.7-0.9-1.6-1.5-2.7c-1.3-2.4-3.1-5.8-5.2-9.8l-0.2-0.4l0.4,0
					c2.3,0.1,4.8,0.3,7.4,0.5c2.7,0.2,5.3,0.4,7.7,0.5l0.4,0l-0.2,0.4c-2.4,3.7-4.5,6.9-6,9.1c-0.7,1-1.3,1.9-1.7,2.5
					C427,268.1,426.8,268.4,426.8,268.4c0,0,0.2-0.4,0.6-1c0.4-0.7,1-1.6,1.6-2.7c1.4-2.3,3.4-5.4,5.7-9.1l0.2,0.4
					c-2.4-0.1-5-0.3-7.7-0.5c-2.6-0.2-5.1-0.3-7.4-0.5l0.2-0.4c2,3.9,3.6,7.3,4.8,9.7c0.6,1.2,1,2.1,1.4,2.9
					C426.6,268,426.8,268.3,426.8,268.4z"/>
			</g>
		</g>
		<g>
			<g>
				<path class="st1" d="M357,79.5c0,0-0.2-0.3-0.5-0.9c-0.4-0.7-0.9-1.6-1.5-2.7c-1.3-2.4-3.1-5.8-5.2-9.8l-0.2-0.4l0.4,0
					c2.3,0.1,4.8,0.3,7.4,0.5c2.7,0.2,5.3,0.4,7.7,0.5l0.4,0l-0.2,0.4c-2.4,3.7-4.5,6.9-6,9.1c-0.7,1-1.3,1.9-1.7,2.5
					C357.3,79.3,357,79.6,357,79.5c0,0,0.2-0.4,0.6-1c0.4-0.7,1-1.6,1.6-2.7c1.4-2.3,3.4-5.4,5.7-9.1l0.2,0.4
					c-2.4-0.1-5-0.3-7.7-0.5c-2.6-0.2-5.1-0.3-7.4-0.5l0.2-0.4c2,3.9,3.6,7.3,4.8,9.7c0.6,1.2,1,2.1,1.4,2.9
					C356.9,79.1,357,79.5,357,79.5z"/>
			</g>
		</g>
		<g>
			<g>
				<path class="st1" d="M236.1,302.6c0,0,0.2-0.3,0.6-0.9c0.4-0.7,1-1.5,1.7-2.6c1.5-2.2,3.6-5.5,6.2-9.2l0.2-0.3l0.2,0.3
					c1.5,2.2,3.1,4.6,4.8,7.1c1.3,1.9,2.6,3.8,3.7,5.5l0.3,0.4l-0.5,0c-5,0-9.4-0.1-12.4-0.1c-1.4,0-2.6,0-3.5-0.1
					C236.5,302.6,236.1,302.6,236.1,302.6c0,0,0.5,0,1.4,0c0.9,0,2.1,0,3.6-0.1c3.1-0.1,7.3-0.1,12.2-0.1l-0.2,0.4
					c-1.2-1.7-2.4-3.6-3.7-5.5c-1.7-2.5-3.3-4.9-4.7-7.1l0.4,0c-2.5,3.6-4.7,6.7-6.3,8.9c-0.8,1.1-1.4,1.9-1.9,2.6
					C236.4,302.2,236.1,302.6,236.1,302.6z"/>
			</g>
		</g>
	</g>
</g>
<g id="Background_Simple" class="st4">
	<g class="st5">
		<path class="st2" d="M452.3,152.8l-1.4-4c-11.5-34-40.5-59.6-75.9-65.5c-4.6-0.8-9.2-1.2-13.8-1.3c-33.3-0.6-66.4,16.8-84.8,44.5
			c-10.8,16.3-17.5,36.5-33.5,47.7c-20.9,14.6-49.3,8.7-73.9,2.2c-24.7-6.5-53.1-12.3-73.9,2.4c-13,9.2-20.1,25-22.9,40.7
			c-7.2,41.7,13.3,85.1,46.1,111.9c32.7,26.8,75.8,38.4,118.1,39.6c59.2,1.7,120.2-16.8,163.5-57.2
			C443.2,273.5,466.4,210.3,452.3,152.8z"/>
	</g>
</g>
<g id="Character">
	<g>
		<g>
			<path class="st6" d="M392.3,432.6H267.1V360c0-34.6,28-62.6,62.6-62.6h0c34.6,0,62.6,28,62.6,62.6V432.6z"/>
		</g>
		<g>
			<g>
				<g>
					<path class="st7" d="M171.2,397.4l-6.3,4.5l-7,16.8c0,0,1.9,1.3,3.4-0.1c1.5-1.4,7.1-11.1,7.1-11.1l0,5.8
						c0,2.3,1.8,4.3,4.1,4.6l10.4,3.2l12.7-3.6l1.1-15.2L171.2,397.4z"/>
				</g>
			</g>
			<g>
				<g>
					<path class="st8" d="M284.4,285.6c-3.1-0.9-4.6-4.5-4.9-7.7c-0.3-3.2,0.3-6.6-0.6-9.7c-0.6-2.2-1.9-4.3-2.1-6.6
						c-0.2-2.5,1-4.9,1.1-7.4c0.1-3.5-2-6.7-2-10.2c-0.1-4.8,0.8-12.7,5.6-12.5c4.8,0.3,12.5,8.7,11.9,13.4"/>
				</g>
				<g>
					<g>
						<g>
							<g>
								<g>
									<path class="st7" d="M329.7,245.9l-0.1,4.8l-1,71.8c-0.1,8.3-7.4,14.9-16.3,14.7h0c-9-0.2-16.3-7.2-16.4-15.6
										c0-8.8-0.2-18.1-0.2-18.1s-11.4-1.9-13.7-16.7c-1.2-7.4-0.8-19.5-0.2-29.4c0.6-8.9,8.4-15.6,17.3-14.6L329.7,245.9z"/>
								</g>
							</g>
							<g>
								<g>
									<g>
										<path class="st8" d="M284.9,265.7c0,1,0.8,1.9,1.8,1.9c1,0.1,1.9-0.7,2-1.7c0-1-0.8-1.9-1.8-1.9
											C285.9,263.9,285,264.7,284.9,265.7z"/>
									</g>
								</g>
								<g>
									<g>
										<g>
											<path class="st8" d="M284.5,263.6c0.2,0.2,1.7-0.8,3.7-0.8c2,0,3.6,1,3.8,0.8c0.1-0.1-0.1-0.6-0.8-1
												c-0.6-0.5-1.7-0.9-3-0.9c-1.3,0-2.4,0.5-3,1C284.6,263,284.4,263.5,284.5,263.6z"/>
										</g>
									</g>
								</g>
							</g>
							<g>
								<g>
									<g>
										<path class="st8" d="M305.4,265.7c0,1,0.8,1.9,1.8,1.9c1,0.1,1.9-0.7,2-1.7c0-1-0.8-1.9-1.8-1.9
											C306.4,263.9,305.5,264.7,305.4,265.7z"/>
									</g>
								</g>
								<g>
									<g>
										<g>
											<path class="st8" d="M304.7,264c0.2,0.2,1.7-0.8,3.7-0.8c2,0,3.6,1,3.8,0.8c0.1-0.1-0.1-0.6-0.8-1
												c-0.6-0.5-1.7-0.9-3-0.9c-1.3,0-2.4,0.5-3,1C304.8,263.4,304.5,263.9,304.7,264z"/>
										</g>
									</g>
								</g>
							</g>
							<g>
								<g>
									<g>
										<path class="st8" d="M297.2,279.2c0-0.1-1.3-0.3-3.3-0.6c-0.5-0.1-1-0.2-1.1-0.5c-0.1-0.4,0.1-0.9,0.3-1.6
											c0.5-1.3,1-2.6,1.5-4c2.1-5.7,3.7-10.3,3.5-10.4c-0.2-0.1-2.2,4.4-4.3,10.1c-0.5,1.4-1,2.7-1.5,4
											c-0.2,0.6-0.5,1.3-0.3,2.1c0.1,0.4,0.5,0.7,0.9,0.8c0.3,0.1,0.6,0.1,0.9,0.1C295.9,279.3,297.2,279.3,297.2,279.2z"/>
									</g>
								</g>
							</g>
							<g>
								<g>
									<path class="st9" d="M295.8,303.4c0,0,10,0.6,19.9-5.3c0,0-4.8,10.2-19.7,8.8L295.8,303.4z"/>
								</g>
							</g>
							<g>
								<g>
									<path class="st9" d="M298.1,284.1c0.7-1,2-1.5,3.3-1.4c0.9,0.1,1.8,0.5,2.3,1.2c0.5,0.7,0.7,1.8,0.2,2.4
										c-0.6,0.8-1.7,1-2.7,0.7c-1-0.3-1.8-0.9-2.6-1.6c-0.2-0.2-0.4-0.4-0.6-0.6C297.9,284.7,297.8,284.4,298.1,284.1"/>
								</g>
							</g>
							<g>
								<g>
									<g>
										<path class="st8" d="M303.3,280.6c-0.3,0-0.3,2.2-2.2,3.8c-1.9,1.6-4.3,1.3-4.3,1.6c0,0.1,0.5,0.4,1.5,0.5
											c1,0,2.4-0.3,3.6-1.2c1.2-1,1.7-2.3,1.7-3.2C303.7,281.1,303.4,280.6,303.3,280.6z"/>
									</g>
								</g>
							</g>
						</g>
					</g>
				</g>
				<g>
					<g>
						<path class="st8" d="M304.1,255.9c0.2,0.6,2.2,0.3,4.7,0.6c2.4,0.2,4.3,0.9,4.7,0.4c0.1-0.2-0.2-0.8-1-1.3
							c-0.8-0.5-2-1.1-3.5-1.2c-1.4-0.2-2.8,0.1-3.6,0.4C304.5,255.2,304,255.7,304.1,255.9z"/>
					</g>
				</g>
				<g>
					<g>
						<path class="st8" d="M285.3,257.7c0.4,0.5,1.8,0,3.5,0c1.7-0.1,3.1,0.3,3.5-0.2c0.1-0.2-0.1-0.7-0.7-1.1
							c-0.6-0.4-1.7-0.8-2.8-0.8c-1.2,0-2.2,0.5-2.8,0.9C285.3,256.9,285.1,257.4,285.3,257.7z"/>
					</g>
				</g>
				<g>
					<path class="st8" d="M335.2,241.3c3.1-8.4,15.9-21,25.8-15.4c10.8,6.2,7,10.4,10.9,13.3c0.9,0.7,5.3-0.8,5.9,0.2
						c1.6,2.6,0.2,5.9-1.1,8.7c0.3,0,0.6-0.1,1-0.3c1.2-0.5,2.5,0.5,2.5,1.8c-0.2,3.3-1.4,6.8-3.3,9.2c0.7,0.2,1.4,0.2,2.1,0.1
						c1-0.2,1.7,0.8,1.4,1.7c-1.1,3.2-4.1,5.7-7.5,6.3c-4.1,0.9-8.5-0.6-11.9-3.2c-3.4-2.5-5.9-6-8.2-9.6c-1.3-2.1-2.6-4.2-4.6-5.7
						s-4.8-2-6.9-0.6"/>
				</g>
				<g>
					<g>
						<path class="st10" d="M341.4,247.5c0,0,0-0.2,0-0.4c0-0.2-0.1-0.6-0.3-1c-0.3-0.8-0.9-1.9-1.6-3c-0.7-1.1-1.5-2.1-2.1-2.7
							c-0.6-0.6-1-1-1-1c0-0.1,0.6,0.2,1.3,0.8c0.7,0.6,1.5,1.6,2.3,2.7c0.7,1.2,1.3,2.3,1.5,3.2c0.1,0.4,0.2,0.8,0.1,1.1
							C341.5,247.4,341.4,247.5,341.4,247.5z"/>
					</g>
				</g>
				<g>
					<g>
						<path class="st8" d="M366.5,270.5c0,0-0.1,0.1-0.4,0.3c-0.2,0.2-0.6,0.4-1.1,0.6c-1,0.4-2.7,0.8-4.7,0.6
							c-2-0.2-4.4-1.1-6.2-3.2c-0.9-1-1.5-2.3-2-3.7c-0.4-1.4-0.6-2.9-0.7-4.4c-0.2-3-0.1-5.9-0.6-8.5c-0.3-1.3-0.7-2.4-1.2-3.4
							c-0.6-1-1.3-1.8-2.1-2.4c-1.6-1.2-3.2-1.5-4.3-1.4c-1.1,0.1-1.6,0.4-1.7,0.4c0,0,0.1-0.1,0.4-0.2c0.3-0.1,0.7-0.3,1.3-0.3
							c1.1-0.1,2.9,0.1,4.5,1.3c0.8,0.6,1.6,1.4,2.2,2.4c0.6,1,1,2.2,1.3,3.5c0.6,2.6,0.5,5.5,0.7,8.5c0.1,1.5,0.3,3,0.7,4.3
							c0.4,1.3,1,2.6,1.8,3.5c1.7,2,4,2.9,5.9,3.1c1.9,0.3,3.5-0.1,4.6-0.4C365.9,270.8,366.4,270.4,366.5,270.5z"/>
					</g>
				</g>
				<g>
					<g>
						<path class="st8" d="M376.4,230.1c0,0,0.1,0.2,0.3,0.6c0.2,0.4,0.3,1,0.4,1.8c0,0.8,0,1.8-0.5,2.8c-0.4,1-1.2,2.2-2.4,2.9
							c-1.2,0.8-2.9,1.1-4.6,0.7c-1.6-0.3-3.4-1.4-4.3-3.1c-1-1.7-1.3-3.6-1.7-5.6c-0.4-1.9-0.8-4.1-2.1-5.6
							c-0.7-0.8-1.5-1.3-2.5-1.6c-1-0.3-2-0.2-2.9-0.1c-1.9,0.4-3.7,1.3-5.2,2.2c-3.1,1.9-5.7,4-7.8,5.9c-2,1.9-3.5,3.6-4.5,4.8
							c-0.5,0.6-0.8,1-1.1,1.4c-0.3,0.3-0.4,0.5-0.4,0.5c0,0,0.1-0.2,0.3-0.5c0.2-0.3,0.6-0.8,1-1.5c0.9-1.2,2.4-3,4.4-5
							c2-2,4.6-4.1,7.8-6.1c1.6-1,3.3-1.9,5.4-2.3c1-0.2,2.1-0.2,3.2,0.1c1.1,0.3,2,0.9,2.8,1.7c1.4,1.7,1.8,3.9,2.2,5.9
							c0.4,2,0.7,3.9,1.6,5.5c0.8,1.6,2.4,2.6,3.9,2.9c1.6,0.3,3.1,0.1,4.3-0.6c1.2-0.7,1.9-1.7,2.4-2.7c0.4-1,0.6-2,0.5-2.7
							C376.9,230.9,376.4,230.2,376.4,230.1z"/>
					</g>
				</g>
				<g>
					<g>
						<path class="st8" d="M338.9,226.6c0,0,0.6,0.5,1.1,1.7c0.5,1.1,0.9,2.9,0.6,4.8c-0.3,1.9-1.3,3.4-2.1,4.3
							c-0.9,0.9-1.6,1.2-1.6,1.2c-0.1-0.1,0.6-0.5,1.3-1.4c0.7-0.9,1.6-2.4,1.9-4.1c0.3-1.8,0-3.4-0.4-4.5
							C339.2,227.3,338.8,226.6,338.9,226.6z"/>
					</g>
				</g>
				<g>
					<g>
						<path class="st8" d="M340.4,245.1c-2.2-5.7-7.5-10.2-13.5-11.4c-3.7-0.7-7.5-0.2-10.9,1.5c-1.3-0.7-2.3-1.8-3.4-2.9
							c-3.6-3.5-7.9-6.2-12.7-7.5c-4.8-1.3-10.1-1-14.6,1.1c-4.5,2.2-8,6.4-9,11.3c-1,4.9,0.9,10.3,4.8,13.3c4,3,10,3.1,13.9-0.1
							c-0.3,2.2,1.7,4.2,3.8,4.6c2.2,0.4,4.4-0.5,6.2-1.8c1.8-1.3,3.2-3,4.8-4.6c0.6-0.6,1.2-1.1,1.8-1.7c2.3,5,7,8.9,12.5,10
							c-1.7,1.9-1.6,4.8-0.9,7.2c0.7,2.4,1.9,4.8,1.8,7.4c0,2.1-0.9,4.1-1.4,6.2c-0.6,2.9-0.1,6,1.2,8.7c0.5,1,1.1,2.5,1.7,3.5
							c1,1.8,1,1.8,2.5,2.2c3.1,0.9,8.3-10.2,9.7-14.6c1.1-3.7,1.6-10.3,2.9-13.9C344,257.1,342.6,250.8,340.4,245.1z"/>
					</g>
					<g>
						<g>
							<path class="st6" d="M342.4,259c0,0-0.1,0.1-0.2,0.3c-0.2,0.2-0.4,0.5-0.8,0.7c-0.4,0.3-1,0.5-1.7,0.6
								c-0.7,0.1-1.5,0-2.3-0.4c-0.4-0.2-0.8-0.5-1.1-0.9c-0.3-0.4-0.6-0.8-0.8-1.3c-0.4-0.9-0.7-2-1.4-2.8
								c-0.6-0.9-1.7-1.4-2.9-1.5c-1.2-0.2-2.4-0.1-3.8-0.2c-1.3,0-2.6-0.2-3.8-0.5c-1.2-0.3-2.3-0.8-3.3-1.3
								c-2-1.1-3.6-2.4-4.8-3.7c-1.1-1.3-1.9-2.5-2.3-3.4c-0.2-0.4-0.3-0.8-0.4-1c-0.1-0.2-0.1-0.4-0.1-0.4c0.1-0.1,0.8,2,3.1,4.5
								c1.1,1.2,2.7,2.5,4.7,3.6c1,0.5,2.1,0.9,3.3,1.2c1.2,0.3,2.4,0.5,3.7,0.5c1.3,0,2.6,0,3.8,0.2c1.2,0.2,2.5,0.8,3.2,1.8
								c0.7,1,1,2.1,1.4,2.9c0.2,0.4,0.4,0.9,0.7,1.2c0.3,0.3,0.6,0.6,1,0.8c1.5,0.8,3,0.4,3.8,0C342.1,259.4,342.4,258.9,342.4,259
								z"/>
						</g>
					</g>
					<g>
						<g>
							<path class="st6" d="M340.1,265c0,0-0.2,0.3-0.6,0.6c-0.4,0.3-1.2,0.8-2.1,1.1c-1,0.3-2.2,0.4-3.5,0.1
								c-1.3-0.3-2.7-1-3.7-2.2c-1-1.2-1.6-2.5-2.3-3.7c-0.6-1.2-1.3-2.1-2-2.7c-0.7-0.6-1.4-1-1.9-1.1c-0.5-0.1-0.8-0.1-0.8-0.2
								c0,0,0.3-0.1,0.9,0c0.6,0.1,1.4,0.4,2.1,1c0.8,0.6,1.5,1.6,2.2,2.8c0.6,1.1,1.2,2.4,2.2,3.5c1,1.1,2.3,1.8,3.5,2.1
								c1.2,0.3,2.4,0.2,3.3,0C339.1,265.8,340.1,264.9,340.1,265z"/>
						</g>
					</g>
				</g>
				<g>
					<g>
						<path class="st6" d="M379.5,247.6c0,0,0,0.2-0.1,0.6c-0.1,0.4-0.4,0.9-0.9,1.4c-0.5,0.5-1.3,1.1-2.3,1.4
							c-1,0.3-2.2,0.5-3.5,0.1c-2.6-0.6-5.1-3-6.6-6.1c-1.6-3.1-2.5-6.8-4.8-10c-1.1-1.6-2.7-2.7-4.4-3.4c-1.7-0.7-3.5-0.9-5.2-0.8
							c-3.4,0.2-6.2,1.9-8,3.6c-1.9,1.7-3.1,3.5-3.8,4.7c-0.7,1.3-1,2-1.1,2c0,0,0-0.2,0.2-0.6c0.1-0.4,0.4-0.9,0.7-1.5
							c0.7-1.3,1.8-3.1,3.7-4.9c1.9-1.8,4.7-3.5,8.3-3.8c1.7-0.1,3.6,0.1,5.4,0.8c1.8,0.7,3.4,1.9,4.6,3.6c2.4,3.3,3.2,7.1,4.8,10.1
							c1.5,3,3.8,5.3,6.3,6c1.2,0.3,2.4,0.2,3.4-0.1c1-0.3,1.7-0.8,2.2-1.3C379.4,248.4,379.5,247.5,379.5,247.6z"/>
					</g>
				</g>
				<g>
					<g>
						<path class="st6" d="M379.1,254.6c0,0-0.1,0.2-0.4,0.4c-0.3,0.3-0.7,0.6-1.2,1.1c-0.6,0.4-1.3,0.9-2.2,1.3
							c-0.9,0.4-2.1,0.6-3.4,0.5c-2.5-0.3-5.4-1.9-7.4-4.6c-1-1.3-1.7-3-2.3-4.7c-0.6-1.7-1.1-3.5-1.7-5.3c-0.6-1.8-1.5-3.4-2.6-4.8
							c-1.1-1.4-2.6-2.3-4.2-2.7c-3.1-0.9-6.2,0-8.3,1.1c-2.2,1.1-3.7,2.5-4.8,3.4c-0.5,0.4-0.9,0.8-1.2,1.1
							c-0.3,0.3-0.4,0.4-0.4,0.4c0,0,0.1-0.2,0.4-0.4c0.2-0.3,0.6-0.7,1.1-1.2c1-1,2.5-2.4,4.7-3.6c2.2-1.2,5.3-2.1,8.6-1.2
							c1.6,0.4,3.2,1.4,4.4,2.8c1.2,1.4,2,3.1,2.7,4.9c0.7,1.8,1.1,3.6,1.7,5.3c0.6,1.7,1.3,3.3,2.2,4.6c1.9,2.6,4.6,4.2,7,4.5
							c1.2,0.1,2.3-0.1,3.2-0.4c0.9-0.3,1.7-0.8,2.2-1.1C378.6,255.1,379.1,254.6,379.1,254.6z"/>
					</g>
				</g>
			</g>
			<g>
				<g>
					<g>
						<path class="st11" d="M271.2,403.4l1.7,4.2l-3.3,38.5h84.9l-3.8-11.5l10.6,0.5c16.3,0.8,29.6-13.7,26.4-29.7
							c-0.1-0.5-0.2-1-0.3-1.4c-5.3-20.6-12.4-48.3-14.9-56.4c-4.1-13.5-13.3-19.9-13.3-19.9c-0.1,0-0.1,0-0.2,0
							c-12.7-10.4-30-11.3-30-11.3l-6.4,4.3c-6.5,4.3-14.6,4.9-21.5,1.8c-2.5-1.2-4.5-3.4-5.3-6l0,0c-7.7,0.9-15.2,2.7-21.7,5.6
							c-8,3.6-14,10.5-16.8,18.8l-22.2,65l-37.8-5.1l-8.1,22.1l38.3,9.1c14.2,4.2,29.3-2.1,36.4-15L271.2,403.4 M341.9,408.6
							L341.9,408.6c0,0,3.6-13.9,5.8-21.4l5.4,21.1L341.9,408.6z"/>
					</g>
					<g>
						<g>
							<path class="st8" d="M370.8,435.4c0,0-0.1,0-0.4,0c-0.3,0-0.7,0-1.3,0c-1.1,0-2.8,0-5,0c-4.4,0-10.7,0-18.7,0.1
								c-16,0-38.6,0.1-65.1,0.1l-0.3,0l0-0.3c0.3-7.9,0.7-16.3,1.1-24.9l0-0.2l0.2,0c7.8-0.2,15.9-0.5,24.2-0.8
								c16.8-0.5,32.9-1,47.6-1.5l-0.2,0.3c-1.8-6.5-3.2-12.8-4.6-18.8c-1.4-6-2.7-11.8-3.9-17.2c-0.6-2.7-1.2-5.4-1.7-7.9
								c-0.6-2.5-1.2-5-1.4-7.5c-0.2-2.4-0.2-4.8,0-7c0.2-2.2,0.6-4.4,1.2-6.3c1.2-3.9,3.2-7.1,5.7-9.2c2.4-2.1,5.1-3.1,7.3-3.4
								c2.2-0.3,3.9,0,5,0.3c0.6,0.2,1,0.3,1.2,0.4c0.3,0.1,0.4,0.2,0.4,0.2c0,0-0.5-0.3-1.7-0.6c-1.1-0.3-2.8-0.6-5-0.2
								c-2.2,0.4-4.8,1.3-7.2,3.4c-2.4,2.1-4.4,5.3-5.5,9.1c-0.6,1.9-0.9,4.1-1.1,6.3c-0.2,2.2-0.2,4.6,0,7c0.2,2.4,0.8,4.9,1.4,7.4
								c0.6,2.6,1.2,5.2,1.8,7.9c1.2,5.4,2.5,11.2,3.9,17.2c1.4,6,2.9,12.3,4.7,18.8l0.1,0.3l-0.3,0c-14.7,0.5-30.8,1-47.6,1.5
								c-8.3,0.3-16.4,0.5-24.2,0.8l0.2-0.2c-0.4,8.6-0.7,16.9-1.1,24.9l-0.2-0.3c26.5,0,49.1,0.1,65.1,0.1c8,0,14.3,0.1,18.7,0.1
								c2.2,0,3.8,0,5,0c0.6,0,1,0,1.3,0C370.6,435.4,370.8,435.4,370.8,435.4z"/>
						</g>
					</g>
					<g>
						<g>
							<path class="st8" d="M275.9,346.9c0,0,0,0.2,0,0.6c0,0.4,0.1,1,0,1.8c-0.1,1.6-0.4,3.8-1.2,6.5c-0.7,2.7-1.9,5.8-3.3,9.2
								c-1.3,3.4-2.9,7.1-3.7,11.3c-0.8,4.1-0.6,8.2-0.1,11.8c0.6,3.6,1.5,6.8,2.3,9.4c0.8,2.6,1.6,4.7,2.1,6.2
								c0.2,0.7,0.4,1.2,0.6,1.7c0.1,0.4,0.2,0.6,0.2,0.6c0,0-0.1-0.2-0.3-0.6c-0.2-0.4-0.4-1-0.7-1.7c-0.6-1.4-1.4-3.5-2.3-6.2
								c-0.9-2.6-1.8-5.8-2.4-9.4c-0.6-3.6-0.8-7.7,0-11.9c0.8-4.2,2.4-8,3.7-11.3c1.4-3.4,2.6-6.4,3.4-9.1c0.8-2.6,1.2-4.8,1.3-6.4
								C275.9,347.7,275.9,346.9,275.9,346.9z"/>
						</g>
					</g>
					<g>
						<g>
							<path class="st8" d="M353.1,408.3c0-0.1,0.7-0.2,1.8-0.2c1.1,0,2.7,0.3,4.2,1c1.6,0.7,2.8,1.8,3.3,2.7c0.6,1,0.7,1.7,0.7,1.7
								c-0.1,0-0.3-0.6-1-1.5c-0.6-0.8-1.8-1.8-3.3-2.5c-1.5-0.7-3-1-4-1.1C353.8,408.3,353.1,408.4,353.1,408.3z"/>
						</g>
					</g>
					<g>
						<g>
							<path class="st8" d="M345.6,320.1c0,0,0.6,0.2,1.6,0.6c0.5,0.2,1.1,0.5,1.8,0.8c0.7,0.3,1.5,0.7,2.4,1.2
								c0.9,0.4,1.8,1,2.8,1.5c1,0.6,2,1.2,3.1,1.9c2.1,1.5,4.4,3.2,6.6,5.3c4.3,4.2,7,9.1,8.3,12.8c0.3,0.9,0.6,1.8,0.8,2.5
								c0.2,0.8,0.4,1.4,0.4,2c0.2,1.1,0.2,1.7,0.2,1.7c0,0-0.2-0.6-0.4-1.6c-0.1-0.5-0.3-1.2-0.5-1.9c-0.2-0.8-0.5-1.6-0.8-2.5
								c-1.3-3.7-4.1-8.4-8.3-12.6c-2.1-2.1-4.4-3.8-6.5-5.3c-1.1-0.7-2.1-1.4-3.1-2c-1-0.6-1.9-1.1-2.8-1.6
								c-0.9-0.4-1.6-0.9-2.3-1.2c-0.7-0.3-1.3-0.6-1.8-0.9C346.1,320.4,345.6,320.1,345.6,320.1z"/>
						</g>
					</g>
					<g class="st12">
						<path d="M342.3,362c0,0-8.4,37.3-8.3,40.9c0.1,3.6,0.9,5.7,0.9,5.7l7,0.1l0.1-0.7l5.9-21.1L342.3,362z"/>
					</g>
				</g>
			</g>
			<g>
				<g>
					<g>
						<g>
							<path class="st7" d="M268.8,410l-5.5-2.2c0,0-6.4-10.8-7.7-10.3c-1.3,0.5-1.5,3.8,1.1,8.8l-7.2-1.6c0,0-15,8-14.3,8.9
								c0.7,0.9,2.1,3.1,5.4,1.2c3.3-1.9,7.6-4.2,7.6-4.2l8.4,1.9l-10.6,2l-9.6,9.7c0,0,3.4,2.3,6.2-0.5l26.5,4.2l11.2,0l0.6-14.8
								L268.8,410z"/>
						</g>
					</g>
					<g>
						<g>
							<g>
								<path class="st9" d="M242.5,423.7c0.1,0.1,0.6-0.7,1.4-1.8c0.4-0.5,1.1-1.1,1.8-1.6c0.7-0.5,1.7-0.7,2.8-0.9
									c4.3-0.8,7.8-1.6,7.8-1.8c0-0.2-3.6,0.2-7.9,1c-1.1,0.2-2.2,0.5-3.1,1.1c-0.8,0.6-1.4,1.2-1.9,1.9
									C242.7,422.8,242.4,423.6,242.5,423.7z"/>
							</g>
						</g>
					</g>
					<g>
						<g>
							<g>
								<path class="st9" d="M246.7,424.5c0.1,0,0.2-0.6,0.9-0.7c0.7-0.2,1.9-0.4,3.2-0.6c2.5-0.4,4.6-0.5,4.6-0.7
									c0-0.2-2.1-0.5-4.7-0.1c-1.3,0.2-2.4,0.5-3.3,0.9c-0.4,0.2-0.7,0.6-0.7,0.9C246.5,424.4,246.6,424.5,246.7,424.5z"/>
							</g>
						</g>
					</g>
				</g>
				<g>
					<g>
						<path class="st9" d="M268.1,409.7c0,0.1-1-0.3-2.6-0.7c-1.6-0.5-3.9-1.1-6.4-1.8c-2.4-0.6-4.6-1.2-6.4-1.6
							c-1.6-0.4-2.6-0.7-2.6-0.8c0-0.1,1.1,0.1,2.7,0.5c1.7,0.3,4,0.8,6.5,1.5c2.5,0.6,4.8,1.3,6.4,1.9
							C267.1,409.2,268.1,409.6,268.1,409.7z"/>
					</g>
				</g>
			</g>
		</g>
	</g>
</g>
<g id="Screens">
	<g>
		<g>
			<g>
				<path class="st8" d="M360.3,130.7c0,0,0-0.4-0.1-1.1c0-0.7,0-1.7-0.1-3c0-2.6-0.1-6.2-0.1-10.4l0.2,0.2c-4.2,0-9.2,0-14.5,0
					c-0.1,0.1,0.5-0.5,0.3-0.3v0v0v0v0v0.1v0.1v0.2l0,0.5l0,1c0,0.7,0,1.3,0,1.9c0,1.3,0,2.5,0,3.7c0,2.4,0,4.7,0,6.8l-0.2-0.2
					c4.3,0,7.8,0.1,10.4,0.1c1.2,0,2.2,0,3,0.1C359.9,130.7,360.3,130.7,360.3,130.7c0,0-0.3,0-1,0.1c-0.7,0-1.7,0-2.9,0.1
					c-2.6,0-6.2,0.1-10.6,0.1l-0.2,0l0-0.2c0-2.1,0-4.4,0-6.8c0-1.2,0-2.5,0-3.7c0-0.6,0-1.3,0-1.9l0-1l0-0.5v-0.2v-0.1v-0.1v0v0v0
					v0c-0.2,0.2,0.3-0.3,0.3-0.3c5.3,0,10.2,0,14.5,0l0.2,0l0,0.2c0,4.3-0.1,7.9-0.1,10.6c0,1.2,0,2.2-0.1,2.9
					C360.3,130.4,360.3,130.8,360.3,130.7z"/>
			</g>
		</g>
		<g>
			<g>
				<path class="st8" d="M360.3,116.4c0.1,0.1-3,3.4-7,7.4c-4,4-7.3,7.1-7.4,7c-0.1-0.1,3-3.4,7-7.4
					C356.9,119.5,360.2,116.3,360.3,116.4z"/>
			</g>
		</g>
		<g>
			<g>
				<path class="st8" d="M360.1,130.7c-0.1,0.1-3.3-3-7.2-6.9c-3.9-3.9-7-7.2-6.9-7.3c0.1-0.1,3.3,3,7.2,6.9
					C357.1,127.3,360.2,130.6,360.1,130.7z"/>
			</g>
		</g>
	</g>
	<g>
		<g>
			<g>
				<path class="st8" d="M445.9,214.9c0,0,0.3-0.3,0.8-0.9c0.6-0.6,1.4-1.4,2.2-2.2c1.9-1.9,4.6-4.5,7.5-7.3l0.1-0.1l0,0.4
					c-3-2.8-5.7-5.3-7.6-7.1c-0.9-0.9-1.6-1.6-2.3-2.2c-0.5-0.5-0.8-0.8-0.8-0.9c0,0,0.3,0.2,0.9,0.7c0.6,0.6,1.4,1.3,2.4,2.1
					c2,1.8,4.7,4.2,7.7,7l0.2,0.2l-0.2,0.2l-0.1,0.1c-3,2.8-5.7,5.3-7.6,7.2c-0.9,0.8-1.7,1.5-2.4,2.1
					C446.3,214.7,446,214.9,445.9,214.9z"/>
			</g>
		</g>
		<g>
			<g>
				<path class="st8" d="M422.9,194.6c0,0-0.3,0.3-0.8,0.9c-0.6,0.6-1.4,1.4-2.2,2.2c-1.9,1.9-4.6,4.5-7.5,7.3l-0.1,0.1l0-0.4
					c3,2.8,5.7,5.3,7.6,7.1c0.9,0.9,1.6,1.6,2.3,2.2c0.5,0.5,0.8,0.8,0.8,0.9c0,0-0.3-0.2-0.9-0.7c-0.6-0.6-1.4-1.3-2.4-2.1
					c-2-1.8-4.7-4.2-7.7-7l-0.2-0.2l0.2-0.2l0.1-0.1c3-2.8,5.7-5.3,7.6-7.2c0.9-0.8,1.7-1.5,2.4-2.1
					C422.5,194.9,422.8,194.6,422.9,194.6z"/>
			</g>
		</g>
		<g>
			<g>
				<path class="st8" d="M428.8,219.7c-0.1-0.1,2.3-6.8,5.4-15.1c3.1-8.3,5.8-15,5.9-14.9c0.1,0.1-2.3,6.8-5.4,15.1
					C431.6,213,428.9,219.7,428.8,219.7z"/>
			</g>
		</g>
		<g>
			<g>
				<path class="st8" d="M472.1,234.2c0,0,0-0.4,0-1.1c0-0.8,0-1.8,0-3.3c0-2.9,0-7-0.1-12.3c0-10.6-0.1-25.8-0.1-44.1l0.2,0.2
					c-21.5,0-47.2,0-75,0h0l0.3-0.3c0,22,0,42.8,0,60.9l-0.2-0.2c22.3,0,41,0.1,54.1,0.1c6.6,0,11.8,0,15.3,0.1c1.8,0,3.1,0,4.1,0
					c0.5,0,0.8,0,1.1,0C472,234.1,472.1,234.2,472.1,234.2s-0.1,0-0.3,0c-0.2,0-0.6,0-1,0c-0.9,0-2.3,0-4,0c-3.6,0-8.7,0-15.3,0.1
					c-13.2,0-32,0.1-54.3,0.1l-0.2,0l0-0.2c0-18.1,0-38.9,0-60.9l0-0.3h0.3h0c27.7,0,53.5,0,75,0l0.2,0l0,0.2
					c0,18.4-0.1,33.6-0.1,44.3c0,5.3,0,9.4-0.1,12.3c0,1.4,0,2.5,0,3.2C472.1,233.8,472.1,234.2,472.1,234.2z"/>
			</g>
		</g>
		<g>
			<g>
				<path class="st8" d="M472.7,182.3c0,0.1-16.9,0.3-37.8,0.3c-20.9,0-37.8-0.1-37.8-0.3s16.9-0.3,37.8-0.3
					C455.8,182.1,472.7,182.2,472.7,182.3z"/>
			</g>
		</g>
		<g>
			<g>
				<path class="st8" d="M403.3,177.9c0,0.6-0.5,1-1,1c-0.6,0-1-0.5-1-1s0.5-1,1-1C402.8,176.9,403.3,177.3,403.3,177.9z"/>
			</g>
			<g>
				<path class="st8" d="M406.9,177.9c0,0.6-0.5,1-1,1c-0.6,0-1-0.5-1-1s0.5-1,1-1C406.5,176.9,406.9,177.3,406.9,177.9z"/>
			</g>
			<g>
				<path class="st8" d="M410.6,177.9c0,0.6-0.5,1-1,1c-0.6,0-1-0.5-1-1s0.5-1,1-1C410.2,176.9,410.6,177.3,410.6,177.9z"/>
			</g>
		</g>
	</g>
	<g>
		<g>
			<path class="st11" d="M273.7,103.6l0.8-0.9c1,1.4,2.3,2.2,3.9,2.2c2.3,0,3.5-1.3,3.5-4.2V89.5h-6.5v-1.2h7.8v12.5
				c0,3.6-1.6,5.3-4.8,5.3C276.5,106.1,274.7,105.2,273.7,103.6z"/>
			<path class="st11" d="M286.8,104.4l0.6-1c1,0.9,2.8,1.6,4.7,1.6c2.8,0,3.9-1,3.9-2.5c0-3.8-8.7-1-8.7-6.2c0-2,1.7-3.6,5-3.6
				c1.7,0,3.5,0.5,4.5,1.3l-0.6,1c-1.1-0.8-2.6-1.2-4-1.2c-2.6,0-3.7,1.1-3.7,2.5c0,4,8.7,1.2,8.7,6.2c0,2.1-1.8,3.6-5.2,3.6
				C290,106.1,287.9,105.4,286.8,104.4z"/>
		</g>
		<g>
			<g>
				<g>
					<path class="st11" d="M308.8,115.4c0,0,0-0.3,0-0.8c0-0.5,0-1.3,0-2.3c0-2,0-4.9-0.1-8.7c0-7.4-0.1-18.1-0.1-30.8l0.2,0.2
						c-13.3,0-29,0-45.9,0c-0.1,0.1,0.5-0.5,0.3-0.3v0v0v0V73v0.2v0.4l0,0.7l0,1.4c0,1,0,1.9,0,2.9c0,1.9,0,3.8,0,5.7
						c0,3.7,0,7.4,0,11c0,7.1,0,13.9,0,20.1l-0.2-0.2c13.7,0,25.1,0.1,33.2,0.1c4,0,7.2,0,9.4,0.1c1.1,0,1.9,0,2.5,0
						c0.3,0,0.5,0,0.6,0C308.8,115.4,308.8,115.4,308.8,115.4c0,0-0.1,0-0.2,0c-0.2,0-0.4,0-0.6,0c-0.6,0-1.4,0-2.4,0
						c-2.2,0-5.3,0-9.3,0.1c-8.1,0-19.6,0.1-33.3,0.1l-0.2,0l0-0.2c0-6.2,0-13,0-20.1c0-3.6,0-7.2,0-11c0-1.9,0-3.8,0-5.7
						c0-1,0-1.9,0-2.9l0-1.4v-0.7v-0.4V73v-0.1v0v0v0c-0.2,0.2,0.3-0.3,0.3-0.3c16.9,0,32.6,0,45.9,0l0.2,0l0,0.2
						c0,12.8-0.1,23.5-0.1,30.9c0,3.7,0,6.6-0.1,8.6c0,1,0,1.7,0,2.3C308.9,115.1,308.8,115.4,308.8,115.4z"/>
				</g>
			</g>
			<g>
				<g>
					<path class="st11" d="M308.8,79.1c0,0.1-10.3,0.3-22.9,0.3c-12.7,0-22.9-0.1-22.9-0.3c0-0.1,10.3-0.3,22.9-0.3
						C298.5,78.9,308.8,79,308.8,79.1z"/>
				</g>
			</g>
			<g>
				<g>
					<ellipse class="st11" cx="267" cy="76" rx="0.8" ry="0.7"/>
				</g>
				<g>
					<path class="st11" d="M270.8,76c0,0.4-0.4,0.7-0.8,0.7c-0.4,0-0.8-0.3-0.8-0.7s0.4-0.7,0.8-0.7C270.4,75.3,270.8,75.6,270.8,76
						z"/>
				</g>
				<g>
					<path class="st11" d="M273.7,76c0,0.4-0.4,0.7-0.8,0.7s-0.8-0.3-0.8-0.7s0.4-0.7,0.8-0.7S273.7,75.6,273.7,76z"/>
				</g>
			</g>
		</g>
	</g>
	<g>
		<g>
			<path class="st11" d="M402.5,101.6c0-4.3,3.3-7.5,7.7-7.5c2.1,0,4,0.7,5.3,2l-0.7,0.7c-1.3-1.2-2.8-1.8-4.5-1.8
				c-3.8,0-6.6,2.8-6.6,6.5c0,3.7,2.9,6.5,6.6,6.5c1.7,0,3.3-0.5,4.5-1.8l0.7,0.7c-1.3,1.4-3.2,2.1-5.3,2.1
				C405.7,109.1,402.5,105.9,402.5,101.6z"/>
			<path class="st11" d="M417.4,107.1l0.5-0.8c1,1.1,2.9,1.9,4.9,1.9c3,0,4.3-1.3,4.3-2.9c0-4.4-9.2-1.8-9.2-7.2
				c0-2.1,1.6-3.9,5.2-3.9c1.6,0,3.3,0.5,4.5,1.3l-0.4,0.9c-1.2-0.8-2.7-1.2-4.1-1.2c-2.9,0-4.2,1.3-4.2,3c0,4.4,9.2,1.8,9.2,7.2
				c0,2.1-1.7,3.9-5.3,3.9C420.6,109.1,418.5,108.3,417.4,107.1z"/>
			<path class="st11" d="M430.3,107.1l0.5-0.8c1,1.1,2.9,1.9,4.9,1.9c3,0,4.3-1.3,4.3-2.9c0-4.4-9.2-1.8-9.2-7.2
				c0-2.1,1.6-3.9,5.2-3.9c1.6,0,3.3,0.5,4.5,1.3l-0.4,0.9c-1.2-0.8-2.7-1.2-4.1-1.2c-2.9,0-4.2,1.3-4.2,3c0,4.4,9.2,1.8,9.2,7.2
				c0,2.1-1.7,3.9-5.3,3.9C433.5,109.1,431.4,108.3,430.3,107.1z"/>
		</g>
		<g>
			<g>
				<g>
					<path class="st11" d="M453.6,120.8c0,0,0-0.3,0-0.8c0-0.5,0-1.3,0-2.3c0-2,0-4.9-0.1-8.6c0-7.4-0.1-18-0.1-31l0.2,0.2
						c-18,0-41,0-65.9,0.1h0l0.3-0.3c0,15.1,0,29.5,0,42.6l-0.2-0.2c19.3,0,35.8,0.1,47.4,0.1c5.8,0,10.4,0,13.6,0.1
						c1.6,0,2.8,0,3.6,0c0.4,0,0.7,0,0.9,0C453.5,120.8,453.6,120.8,453.6,120.8c0,0-0.1,0-0.3,0c-0.2,0-0.5,0-0.9,0
						c-0.8,0-2,0-3.6,0c-3.2,0-7.8,0-13.5,0.1c-11.7,0-28.2,0.1-47.6,0.1l-0.2,0l0-0.2c0-13.1,0-27.4,0-42.6l0-0.3h0.3h0
						c24.9,0,47.8,0,65.9,0.1l0.2,0l0,0.2c0,13-0.1,23.7-0.1,31.1c0,3.7,0,6.5-0.1,8.5c0,1,0,1.7,0,2.2
						C453.6,120.6,453.6,120.8,453.6,120.8z"/>
				</g>
			</g>
			<g>
				<g>
					<path class="st11" d="M453.6,84.6c0,0.1-14.8,0.3-33,0.3c-18.2,0-33-0.1-33-0.3c0-0.1,14.8-0.3,33-0.3
						C438.9,84.3,453.6,84.4,453.6,84.6z"/>
				</g>
			</g>
			<g>
				<g>
					<path class="st11" d="M392.6,81.5c0,0.4-0.4,0.7-0.8,0.7s-0.8-0.3-0.8-0.7s0.4-0.7,0.8-0.7S392.6,81.1,392.6,81.5z"/>
				</g>
				<g>
					<path class="st11" d="M395.5,81.5c0,0.4-0.4,0.7-0.8,0.7c-0.4,0-0.8-0.3-0.8-0.7s0.4-0.7,0.8-0.7
						C395.2,80.8,395.5,81.1,395.5,81.5z"/>
				</g>
				<g>
					<path class="st11" d="M398.5,81.5c0,0.4-0.4,0.7-0.8,0.7c-0.4,0-0.8-0.3-0.8-0.7s0.4-0.7,0.8-0.7
						C398.1,80.8,398.5,81.1,398.5,81.5z"/>
				</g>
			</g>
		</g>
	</g>
	<g>
		<g>
			<rect x="285.9" y="142.9" class="st11" width="82.7" height="59"/>
		</g>
		<g>
			<path class="st13" d="M313.8,170.2V182h-2.7v-4.8h-5.3v4.8h-2.7v-11.7h2.7v4.6h5.3v-4.6H313.8z"/>
			<path class="st13" d="M319,172.5h-3.7v-2.2h10.2v2.2h-3.7v9.5H319V172.5z"/>
			<path class="st13" d="M326.9,170.2h2.7v9.5h5.9v2.2h-8.6V170.2z"/>
			<path class="st13" d="M347.7,182l0-7l-3.4,5.8H343l-3.4-5.6v6.9H337v-11.7h2.2l4.4,7.3l4.3-7.3h2.2l0,11.7H347.7z"/>
		</g>
		<g>
			<g>
				<g>
					<path class="st13" d="M369.3,151.6c0,0.1-18.7,0.3-41.7,0.3c-23,0-41.7-0.1-41.7-0.3c0-0.1,18.7-0.3,41.7-0.3
						C350.6,151.3,369.3,151.5,369.3,151.6z"/>
				</g>
			</g>
			<g>
				<g>
					<path class="st13" d="M292.7,147.3c0,0.5-0.5,1-1.1,1c-0.6,0-1.1-0.4-1.1-1s0.5-1,1.1-1C292.2,146.3,292.7,146.8,292.7,147.3z"
						/>
				</g>
				<g>
					<path class="st13" d="M296.7,147.3c0,0.5-0.5,1-1.1,1c-0.6,0-1.1-0.4-1.1-1s0.5-1,1.1-1C296.2,146.3,296.7,146.8,296.7,147.3z"
						/>
				</g>
				<g>
					<path class="st13" d="M300.8,147.3c0,0.5-0.5,1-1.1,1c-0.6,0-1.1-0.4-1.1-1s0.5-1,1.1-1C300.3,146.3,300.8,146.8,300.8,147.3z"
						/>
				</g>
			</g>
		</g>
	</g>
	<g>
		<g>
			<g>
				<g>
					<path class="st8" d="M115.4,259c0,0,0-0.1,0-0.2c0-0.1,0-0.3,0-0.6c0-0.5,0-1.2,0-2.1c0-1.9,0-4.6-0.1-8.1
						c0-6.9-0.1-16.8-0.1-28.6l0.2,0.2c-11.5,0-25.1,0-39.5,0c-0.1,0.1,0.5-0.5,0.3-0.3v0v0v0v0.1v0.2v0.3v0.7l0,1.3
						c0,0.9,0,1.8,0,2.7c0,1.8,0,3.5,0,5.3c0,3.5,0,6.9,0,10.2c0,6.6,0,12.9,0,18.7l-0.2-0.2c11.8,0,21.7,0.1,28.6,0.1
						c3.5,0,6.2,0,8.1,0.1c0.9,0,1.6,0,2.1,0c0.2,0,0.4,0,0.6,0C115.3,259,115.4,259,115.4,259c0,0-0.1,0-0.2,0c-0.1,0-0.3,0-0.5,0
						c-0.5,0-1.2,0-2.1,0c-1.9,0-4.6,0-8,0.1c-7,0-16.9,0.1-28.7,0.1l-0.2,0l0-0.2c0-5.8,0-12,0-18.7c0-3.3,0-6.7,0-10.2
						c0-1.7,0-3.5,0-5.3c0-0.9,0-1.8,0-2.7l0-1.3v-0.7v-0.3v-0.2v-0.1v0v0v0c-0.2,0.2,0.3-0.3,0.3-0.3c14.5,0,28,0,39.5,0l0.2,0
						l0,0.2c0,11.9-0.1,21.8-0.1,28.7c0,3.4,0,6.1-0.1,8c0,0.9,0,1.6,0,2.1c0,0.2,0,0.4,0,0.5C115.4,258.9,115.4,259,115.4,259z"/>
				</g>
			</g>
			<g>
				<g>
					<path class="st8" d="M115.4,219.8c0.1,0.1-8.6,9-19.5,19.9c-10.9,10.9-19.8,19.6-19.9,19.5c-0.1-0.1,8.6-9,19.5-19.9
						C106.4,228.5,115.3,219.7,115.4,219.8z"/>
				</g>
			</g>
			<g>
				<g>
					<path class="st8" d="M114.7,258.7c-0.1,0.1-8.8-8.5-19.5-19.3c-10.7-10.7-19.2-19.5-19.1-19.6c0.1-0.1,8.8,8.5,19.5,19.3
						C106.3,249.9,114.8,258.6,114.7,258.7z"/>
				</g>
			</g>
		</g>
		<g>
			<g>
				<path class="st8" d="M197.8,230.1c0,0.1-15.7,0.3-35.1,0.3c-19.4,0-35.1-0.1-35.1-0.3c0-0.1,15.7-0.3,35.1-0.3
					C182.1,229.8,197.8,229.9,197.8,230.1z"/>
			</g>
		</g>
		<g>
			<g>
				<path class="st8" d="M197.8,236.4c0,0.1-15.7,0.3-35.1,0.3c-19.4,0-35.1-0.1-35.1-0.3c0-0.1,15.7-0.3,35.1-0.3
					C182.1,236.1,197.8,236.2,197.8,236.4z"/>
			</g>
		</g>
		<g>
			<g>
				<path class="st8" d="M197.8,242.7c0,0.1-15.7,0.3-35.1,0.3c-19.4,0-35.1-0.1-35.1-0.3c0-0.1,15.7-0.3,35.1-0.3
					C182.1,242.4,197.8,242.5,197.8,242.7z"/>
			</g>
		</g>
		<g>
			<g>
				<path class="st8" d="M197.8,249c0,0.1-15.7,0.3-35.1,0.3c-19.4,0-35.1-0.1-35.1-0.3c0-0.1,15.7-0.3,35.1-0.3
					C182.1,248.7,197.8,248.8,197.8,249z"/>
			</g>
		</g>
		<g>
			<g>
				<path class="st8" d="M159.4,223.7c0,0.1-7.2,0.3-16.1,0.3c-8.9,0-16.1-0.1-16.1-0.3s7.2-0.3,16.1-0.3
					C152.2,223.5,159.4,223.6,159.4,223.7z"/>
			</g>
		</g>
		<g>
			<g>
				<path class="st8" d="M63.4,207.5c0,0,0.2,0,0.8,0c0.5,0,1.3,0,2.3,0c2,0,4.9,0,8.8,0c7.7,0,18.9,0,32.9,0
					c28.2,0,68,0.1,114.3,0.2l0.2,0v0.2c0,19.5,0,40.6,0,62.6l0,0.3h-0.3c-3,0-6.2,0-9.4,0c-1.6,0-3.3,0-4.9,0l0.3-0.3
					c0,4.4,0,8.7,0,13v0.6l-0.4-0.4c-4.4-4.4-8.7-8.7-13-13l0.2,0.1c-51.8,0-97.8-0.1-131.7-0.1l-0.2,0l0-0.2
					c0-19.6,0.1-35.4,0.1-46.3c0-5.4,0-9.6,0-12.4c0-1.4,0-2.5,0-3.2C63.3,207.9,63.4,207.5,63.4,207.5s0,0.4,0,1.1
					c0,0.7,0,1.8,0,3.2c0,2.9,0,7.1,0,12.5c0,10.8,0.1,26.6,0.1,46.2l-0.2-0.2c33.9,0,79.9,0,131.7-0.1l0.1,0l0.1,0.1
					c4.3,4.3,8.6,8.6,13,13l-0.4,0.2c0-4.3,0-8.6,0-13v-0.3h0.3c1.6,0,3.3,0,4.9,0c3.2,0,6.4,0,9.4,0l-0.3,0.3c0-21.9,0-43.1,0-62.6
					l0.2,0.2c-46.3-0.2-86-0.3-114.1-0.4c-14.1-0.1-25.3-0.1-33-0.2c-3.8,0-6.8,0-8.8-0.1c-1,0-1.8,0-2.3,0
					C63.6,207.5,63.4,207.5,63.4,207.5z"/>
			</g>
		</g>
	</g>
</g>
<g id="Desk">
	<g>
		<g>
			<rect x="381.8" y="410.8" class="st6" width="86.8" height="21.8"/>
		</g>
		<g>
			<rect x="403.2" y="417.9" class="st8" width="52.9" height="7.6"/>
		</g>
		<g>
			<path class="st8" d="M396.5,422.2c0,2.3-1.9,4.2-4.2,4.2c-2.3,0-4.2-1.9-4.2-4.2c0-2.3,1.9-4.2,4.2-4.2
				C394.7,417.9,396.5,419.8,396.5,422.2z"/>
		</g>
		<g>
			<rect x="390.9" y="399" class="st8" width="69.3" height="11.8"/>
		</g>
		<g>
			<g>
				<rect x="390.9" y="377.2" class="st11" width="86.8" height="21.8"/>
			</g>
			<g>
				<g>
					<path class="st3" d="M403.8,398.4c-0.1,0-0.3-4.7-0.3-10.6c0-5.9,0.1-10.6,0.3-10.6c0.1,0,0.3,4.7,0.3,10.6
						C404.1,393.6,404,398.4,403.8,398.4z"/>
				</g>
			</g>
			<g>
				<g>
					<path class="st3" d="M400,398.4c-0.1,0-0.3-4.7-0.3-10.6c0-5.9,0.1-10.6,0.3-10.6c0.1,0,0.3,4.7,0.3,10.6
						C400.3,393.6,400.2,398.4,400,398.4z"/>
				</g>
			</g>
			<g>
				<g>
					<path class="st3" d="M463.9,398.4c-0.1,0-0.3-4.7-0.3-10.6c0-5.9,0.1-10.6,0.3-10.6c0.1,0,0.3,4.7,0.3,10.6
						C464.2,393.6,464,398.4,463.9,398.4z"/>
				</g>
			</g>
			<g>
				<g>
					<path class="st3" d="M460.1,398.4c-0.1,0-0.3-4.7-0.3-10.6c0-5.9,0.1-10.6,0.3-10.6c0.1,0,0.3,4.7,0.3,10.6
						C460.4,393.6,460.3,398.4,460.1,398.4z"/>
				</g>
			</g>
		</g>
		<g>
			<path class="st2" d="M419.6,404.7c0-1.4,1-2.3,2.4-2.3c0.8,0,1.4,0.3,1.8,0.9l-0.5,0.3c-0.3-0.5-0.8-0.7-1.3-0.7
				c-1,0-1.7,0.7-1.7,1.8c0,1.1,0.7,1.8,1.7,1.8c0.5,0,1-0.2,1.3-0.7l0.5,0.3c-0.4,0.6-1,0.9-1.8,0.9
				C420.6,407.1,419.6,406.1,419.6,404.7z"/>
			<path class="st2" d="M424.4,406.5l0.3-0.5c0.4,0.3,1,0.5,1.6,0.5c0.9,0,1.2-0.3,1.2-0.8c0-1.2-3-0.3-3-2.1c0-0.8,0.7-1.3,1.8-1.3
				c0.6,0,1.2,0.2,1.6,0.4l-0.3,0.5c-0.4-0.3-0.9-0.4-1.4-0.4c-0.8,0-1.2,0.3-1.2,0.8c0,1.2,3,0.3,3,2.1c0,0.8-0.7,1.3-1.9,1.3
				C425.5,407.1,424.8,406.8,424.4,406.5z"/>
			<path class="st2" d="M428.7,406.5l0.3-0.5c0.4,0.3,1,0.5,1.6,0.5c0.9,0,1.2-0.3,1.2-0.8c0-1.2-3-0.3-3-2.1c0-0.8,0.7-1.3,1.8-1.3
				c0.6,0,1.2,0.2,1.6,0.4l-0.3,0.5c-0.4-0.3-0.9-0.4-1.4-0.4c-0.8,0-1.2,0.3-1.2,0.8c0,1.2,3,0.3,3,2.1c0,0.8-0.7,1.3-1.9,1.3
				C429.8,407.1,429.1,406.8,428.7,406.5z"/>
		</g>
		<g>
			<circle class="st2" cx="401.1" cy="404.9" r="2.1"/>
		</g>
		<g>
			<circle class="st2" cx="453.7" cy="404.9" r="2.1"/>
		</g>
	</g>
	<g>
		<g>
			<g>
				<g>
					<path class="st8" d="M189.5,409.7H43.6c-6.6,0-12-5.4-12-12V306c0-6.6,5.4-12,12-12h145.8c6.6,0,12,5.4,12,12v91.7
						C201.5,404.3,196.1,409.7,189.5,409.7z"/>
				</g>
				<g>
					<polygon class="st6" points="88.2,382.2 78.8,435.4 122.9,435.4 130.9,381.1 					"/>
				</g>
				<g>
					<path class="st6" d="M182.7,409.7H36.9c-6.6,0-12-5.4-12-12V306c0-6.6,5.4-12,12-12h145.8c6.6,0,12,5.4,12,12v91.7
						C194.7,404.3,189.4,409.7,182.7,409.7z"/>
				</g>
				<g>
					<polygon class="st8" points="126.7,409.7 130.9,381.1 132.1,409.7 					"/>
				</g>
				<g>
					<g>
						<path class="st8" d="M88.4,379.3c0.1,0-0.9,7.1-2.4,15.8c-1.5,8.7-2.8,15.8-2.9,15.7c-0.1,0,0.9-7.1,2.4-15.8
							C87,386.3,88.3,379.2,88.4,379.3z"/>
					</g>
				</g>
				<g>
					<path class="st3" d="M115.4,347.8c0,3.1-2.5,5.6-5.6,5.6c-3.1,0-5.6-2.5-5.6-5.6c0-3.1,2.5-5.6,5.6-5.6
						C112.9,342.3,115.4,344.8,115.4,347.8z"/>
					<path class="st8" d="M109.8,353.4c-3.1,0-5.6-2.5-5.6-5.6c0-3.1,2.5-5.6,5.6-5.6c3.1,0,5.6,2.5,5.6,5.6
						C115.4,350.9,112.9,353.4,109.8,353.4z M109.8,342.3c-3.1,0-5.5,2.5-5.5,5.5c0,3.1,2.5,5.5,5.5,5.5c3.1,0,5.5-2.5,5.5-5.5
						C115.4,344.8,112.9,342.3,109.8,342.3z"/>
				</g>
			</g>
		</g>
		<g>
			<rect x="162.3" y="425.8" class="st6" width="96.6" height="6.8"/>
		</g>
		<g>
			<g>
				<path class="st6" d="M151.7,432.6h-20.3v-1.7c0-4.3,3.5-7.8,7.8-7.8h4.8c4.3,0,7.8,3.5,7.8,7.8V432.6z"/>
			</g>
			<g>
				<g>
					<path class="st8" d="M151.4,430.5c0,0.1-4.4,0.3-9.8,0.3c-5.4,0-9.8-0.1-9.8-0.3s4.4-0.3,9.8-0.3
						C147,430.2,151.4,430.4,151.4,430.5z"/>
				</g>
			</g>
			<g>
				<g>
					<path class="st8" d="M141.8,423.1c0.1,0,0.2,1.6,0.2,3.6c-0.1,2-0.2,3.6-0.4,3.6c-0.1,0-0.2-1.6-0.2-3.6
						C141.5,424.7,141.6,423.1,141.8,423.1z"/>
				</g>
			</g>
		</g>
	</g>
	<g>
		<rect x="17.7" y="432.6" class="st8" width="464.6" height="13.5"/>
	</g>
	<g>
		<defs>
			<rect id="SVGID_1_" x="545.8" y="87.9" width="127" height="178"/>
		</defs>
		<clipPath id="SVGID_00000008856410407481763170000006129265415699618461_">
			<use xlink:href="#SVGID_1_"  style="overflow:visible;"/>
		</clipPath>
		<g style="clip-path:url(#SVGID_00000008856410407481763170000006129265415699618461_);">
			
				<image style="overflow:visible;" width="127" height="178" xlink:href="175F8621.jpg"  transform="matrix(1 0 0 1 545.7936 87.8753)">
			</image>
		</g>
	</g>
</g>
</svg>
